# xmcd CD database file generated by LOLA_Freedb v0.9beta0
# 
# Track frame offsets:
#      150
#      19083
#      40007
#      58127
#      79444
#      93022
#      111385
# 
# Disc length: 1777 seconds
# 
# Revision: 0 
# Processed by: cddbd v1.5.2PL0 Copyright (c) Steve Scherf et al.
# Submitted via: LOLA_Freedb v0.9beta0
# 
DISCID=5306ef07
DTITLE=Watsonian Institute - Master Funk
DYEAR=1978
DGENRE=
TTITLE0=The Institute
TTITLE1=Master Funk
TTITLE2=The Funk If I Know
TTITLE3=Lady Voo Doo
TTITLE4=De John's Delight
TTITLE5=Coming Around
TTITLE6=Virginia's Pretty Funky
EXTD=
EXTT0=
EXTT1=
EXTT2=
EXTT3=
EXTT4=
EXTT5=
EXTT6=
PLAYORDER=
